<svg width="557" height="548" viewBox="0 0 557 548" fill="none" xmlns="http://www.w3.org/2000/svg">
<path d="M126 237V449.4H82.8V279H6.6V237H126ZM126 431.4C154.2 475.8 207 496.2 278.4 498.6C345 501.6 483.6 499.8 556.2 495C550.8 505.2 543.6 526.2 541.8 539.4C474 542.4 345.6 543.6 278.4 540.6C199.2 537.6 144.6 516.6 107.4 469.2C81 495 53.4 520.8 23.4 547.2L0 503.4C26.4 484.2 58.8 457.2 87 431.4H126ZM12 40.1996L46.2 15.5996C83.4 42.5996 125.4 83.9996 144 113.4L106.8 141.6C90 111.6 48.6 69.5996 12 40.1996ZM160.2 53.9996H537.6V91.7996H160.2V53.9996ZM151.2 370.8H546.6V408.6H151.2V370.8ZM322.8 0.599609H367.2V477H322.8V0.599609ZM230.4 246V294H462.6V246H230.4ZM230.4 166.8V214.2H462.6V166.8H230.4ZM189 133.2H506.4V328.2H189V133.2Z" fill="#FF0206"/>
</svg>
