<svg width="186" height="182" viewBox="0 0 186 182" fill="none" xmlns="http://www.w3.org/2000/svg">
<path d="M64.7984 58.6H78.9984V144.6H64.7984V58.6ZM155.798 58.6H170.398V140.4H155.798V58.6ZM109.198 0H123.998V155.8C123.998 162 124.998 165.8 127.998 166.8C130.798 167.6 133.398 168 136.998 168C140.598 168 149.198 168 154.198 168C158.198 168 162.398 167.8 164.598 167.2C166.798 166.6 169.198 165.4 170.198 162.6C170.798 159.6 171.598 152.8 171.798 143.8C175.398 146.8 180.798 149.4 185.598 150.8C185.398 158.8 183.998 168.6 182.198 172.4C180.198 176.6 176.998 179 172.198 180.4C167.998 181.6 160.998 182 155.398 182C151.198 182 138.198 182 134.598 182C128.798 182 121.798 181 116.998 178.4C111.798 175.6 109.198 171.4 109.198 154.4V0ZM165.798 9.8L176.798 21.8C146.398 33.4 98.3984 41.4 57.5984 46C56.9984 42.4 54.7984 37 53.1984 33.4C93.3984 28.4 140.198 20 165.798 9.8ZM71.1984 116.6H162.798V130.8H71.1984V116.6ZM10.9984 11.6L19.3984 0.800002C31.9984 6.2 47.7984 15.2 55.3984 22.2L46.7984 34.4C39.1984 27.2 23.7984 17.6 10.9984 11.6ZM0.398438 66L8.59844 54.8C21.3984 59.6 37.5984 68.2 45.5984 74.8L36.9984 87.2C29.1984 80.4 13.3984 71.4 0.398438 66ZM6.39844 170.6C16.5984 155.2 31.1984 128.6 41.9984 105.8L53.3984 115C43.5984 136.2 30.3984 161.6 19.3984 180.2L6.39844 170.6Z" fill="#FF0000"/>
</svg>
